#!OML:ASF H:\Terrain\Patient Classification 1\Walking\liu\liu.ASF
:FULLY-SPECIFIED
:DEGREES
284
root 9.38628 16.5226 28.6266 11.6866 -8.55712 -7.67112
lowerback -5.15167 5.12898 2.75688
upperback -0.219446 6.55782 4.52764
thorax 2.42528 3.28136 3.60077
lowerneck -15.1185 -5.02934 -14.5497
upperneck 16.8124 -5.79906 11.646
head 8.49536 -2.56861 5.68188
rclavicle 2.96189e-014 -1.35174e-014
rhumerus -2.73021 45.7938 -78.1103
rradius 49.4056
rwrist -25.9721
rhand -35.0676 -17.9374
rfingers 7.12502
rthumb -8.20997 -47.7579
lclavicle 2.96189e-014 -1.35174e-014
lhumerus -67.2945 0.609218 70.0178
lradius 19.1804
lwrist -9.61866
lhand -13.3927 -24.708
lfingers 7.12502
lthumb 12.7147 4.88489
rfemur 23.7045 5.75044 29.1993
rtibia -2.54444e-014
rfoot 3.16343 3.5781
rtoes -24.9533
lfemur -49.6144 4.48747 -11.4489
ltibia 25.0766
lfoot -8.74089 8.48904
ltoes -13.8527
285
root 9.39949 16.4529 28.9154 11.6944 -8.60728 -7.48412
lowerback -5.39699 5.19463 2.31953
upperback 0.0844732 6.64767 4.4308
thorax 2.83512 3.3194 3.79282
lowerneck -16.0824 -5.19474 -14.2251
upperneck 16.9305 -5.91364 11.3215
head 8.70569 -2.60459 5.49183
rclavicle -1.56046e-014 0
rhumerus -1.70968 45.3062 -77.4689
rradius 49.3801
rwrist -26.047
rhand -34.9666 -18.0665
rfingers 7.12502
rthumb -8.11252 -47.8908
lclavicle -1.56046e-014 0
lhumerus -67.1946 1.68036 67.663
lradius 18.7286
lwrist -10.3448
lhand -13.0935 -24.678
lfingers 7.12502
lthumb 13.0031 4.89676
rfemur 24.6374 5.67476 28.8622
rtibia 3.49861e-014
rfoot 5.07784 2.7687
rtoes -26.2171
lfemur -50.9831 5.31196 -12.4844
ltibia 27.8651
lfoot -3.56821 7.60624
ltoes -22.85
286
root 9.41004 16.4412 29.2139 11.7832 -8.51641 -7.28663
lowerback -5.03891 5.1777 1.85383
upperback -0.370177 6.69903 4.24682
thorax 2.1312 3.34843 3.79067
lowerneck -16.158 -5.32705 -14.2626
upperneck 17.1268 -6.21362 11.8843
head 8.84884 -2.69284 5.66416
rclavicle -6.25178e-014 -3.89618e-014
rhumerus -2.76556 44.6824 -78.6686
rradius 49.4046
rwrist -25.855
rhand -34.695 -18.2523
rfingers 7.12502
rthumb -7.85044 -48.0865
lclavicle -6.25178e-014 -3.89618e-014
lhumerus -67.9481 1.74339 65.8331
lradius 17.9147
lwrist -10.5516
lhand -13.0618 -24.6692
lfingers 7.12502
lthumb 13.0336 4.90358
rfemur 25.3566 5.48633 28.4868
rtibia 3.18055e-015
rfoot 7.53448 1.46186
rtoes -26.0927
lfemur -51.9702 5.83763 -13.1699
ltibia 30.9198
lfoot -1.94839 6.53481
ltoes -19.7232
287
root 9.41766 16.4132 29.4992 11.7312 -8.38056 -6.98505
lowerback -4.66857 5.2568 1.25433
upperback -0.369816 6.85881 4.12116
thorax 1.86255 3.42774 3.95796
lowerneck -17.3367 -5.73178 -14.6202
upperneck 17.535 -6.65956 12.3768
head 9.30155 -2.84209 5.84346
rclavicle 4.27387e-014 1.66979e-014
rhumerus -2.84812 43.5834 -78.846
rradius 49.3857
rwrist -25.4688
rhand -34.675 -17.9051
rfingers 7.12502
rthumb -7.83107 -47.7401
lclavicle 4.27387e-014 1.66979e-014
lhumerus -67.5941 2.26556 64.0487
lradius 16.6498
lwrist -11.4591
lhand -13.4103 -24.6125
lfingers 7.12502
lthumb 12.6977 4.98143
rfemur 23.4079 5.17543 27.9412
rtibia 5.63233
rfoot 7.68136 0.385259
rtoes -22.766
lfemur -52.775 6.1937 -13.8823
ltibia 33.9618
lfoot -1.17176 6.4674
ltoes -16.9737
288
root 9.42817 16.3878 29.7796 11.2804 -8.34459 -5.98693
lowerback -4.96206 5.3417 0.438681
upperback -0.0972514 7.01004 3.59491
thorax 2.26737 3.49138 3.92142
lowerneck -16.1408 -5.71596 -14.8336
upperneck 16.6609 -6.82228 13.0372
head 8.84379 -2.90371 6.08118
rclavicle 2.98177e-016 -1.74931e-014
rhumerus -3.15486 42.2978 -79.395
rradius 49.3009
rwrist -25.1983
rhand -35.1077 -17.1257
rfingers 7.12502
rthumb -8.2487 -46.9447
lclavicle 2.98177e-016 -1.74931e-014
lhumerus -67.1963 2.65478 61.8885
lradius 15.564
lwrist -12.5083
lhand -13.8899 -24.7015
lfingers 7.12502
lthumb 12.2352 4.92065
rfemur 22.1235 4.79429 26.7081
rtibia 10.4941
rfoot 8.34271 -0.836204
rtoes -20.8053
lfemur -53.1589 6.21095 -15.199
ltibia 37.0838
lfoot -0.930199 6.65318
ltoes -17.085
289
root 9.44301 16.3531 30.0692 10.87 -8.36987 -4.77784
lowerback -4.81784 5.373 -0.892618
upperback 0.186878 7.1348 3.24103
thorax 2.35596 3.5378 4.29511
lowerneck -16.9288 -5.88255 -15.0462
upperneck 16.8313 -6.97165 13.3628
head 9.09053 -2.92973 6.21445
rclavicle -2.49475e-014 2.3059e-014
rhumerus -3.18683 41.6246 -79.2797
rradius 49.3667
rwrist -25.3755
rhand -35.5646 -16.9968
rfingers 7.12502
rthumb -8.6897 -46.798
lclavicle -2.49475e-014 2.3059e-014
lhumerus -66.8382 3.90707 59.2626
lradius 14.8394
lwrist -14.7407
lhand -13.6853 -24.7112
lfingers 7.12502
lthumb 12.4325 4.89906
rfemur 20.7537 3.72406 24.8681
rtibia 15.3914
rfoot 9.20406 -0.700882
rtoes -20.1187
lfemur -53.3912 6.30568 -16.916
ltibia 39.6756
lfoot -0.422615 6.42848
ltoes -15.8943
